<svg width="140" height="140" viewBox="0 0 140 140" fill="none" xmlns="http://www.w3.org/2000/svg">
<path d="M112.458 124.479C122.078 123.879 126.238 119.309 127.178 108.989C127.908 100.949 128.178 96.9293 128.538 88.8793C128.968 79.2793 133.818 73.7493 138.498 71.1793C139.908 70.3793 139.898 68.5293 138.498 67.6393C133.618 64.6993 128.888 58.4493 128.518 50.1893C128.158 42.2893 127.888 38.3393 127.168 30.4393C126.148 19.3093 122.618 15.7693 112.988 15.1593C84.2016 13.6069 55.3527 13.6136 26.5675 15.1793C16.9475 15.7893 13.4075 19.3293 12.3875 30.4593C11.6675 38.3593 11.3975 42.3093 11.0375 50.2093C10.6575 58.4693 5.93753 64.7193 1.05753 67.6593C0.737845 67.8313 0.470719 68.0867 0.28452 68.3983C0.0983204 68.71 0 69.0662 0 69.4293C0 69.7923 0.0983204 70.1486 0.28452 70.4602C0.470719 70.7718 0.737845 71.0272 1.05753 71.1993C5.74753 73.6893 10.5875 79.2093 11.0175 88.8993C11.3775 96.9393 11.6475 100.959 12.3775 109.009C13.3175 119.329 17.4775 123.899 27.0975 124.499C55.6175 126.029 83.9475 126.029 112.458 124.499V124.479ZM69.5475 106.629C60.7775 107.119 49.8475 102.829 43.5975 96.6793C42.3675 95.5493 41.8675 94.1493 41.8375 92.7593C41.8075 91.6493 42.0675 90.4493 42.8775 89.5293C43.7475 88.3893 44.1875 87.8193 45.0575 86.6793C46.1575 85.2993 47.3575 84.6593 48.7575 84.6693C50.3375 84.6793 51.8375 85.3393 53.4375 86.3793C58.4975 89.6793 64.0675 91.5793 70.7475 91.5793C75.8475 91.5793 80.5275 88.6893 79.9775 85.0093C77.7975 70.4093 41.6075 78.8193 42.1475 54.3793C42.4375 41.5193 55.2875 32.4993 67.8975 32.8093C77.6675 33.0593 85.3675 35.8993 90.9775 39.5193C92.3775 40.4693 93.3475 42.3493 93.3875 44.2093C93.4075 45.3293 93.1575 46.3393 92.5275 47.2693C91.8775 48.2693 91.5575 48.7593 90.8975 49.7593C89.7175 51.4193 88.3275 52.2493 86.5575 52.2393C85.3475 52.2393 84.0375 51.7593 82.6375 51.0993C78.4375 48.9293 74.0775 47.7893 68.7875 47.7893C63.3175 47.7893 59.6375 51.3093 60.0275 53.8893C62.2075 68.3593 97.3775 59.8593 97.8675 83.9593C98.1675 98.8393 82.2875 106.479 69.5275 106.639L69.5475 106.629Z" fill="#191A1B"/>
<path d="M105.688 116.39C114.158 115.77 117.918 111.69 118.888 102.57C119.638 95.4698 119.918 91.9198 120.288 84.8098C120.728 76.3298 125.038 71.4398 129.208 69.1698C130.458 68.4698 130.458 66.8398 129.208 66.0498C124.868 63.4598 120.658 57.9298 120.268 50.6398C119.898 43.6598 119.618 40.1798 118.878 33.1998C117.828 23.3698 114.638 20.1998 106.168 19.5798C80.8222 18.0007 55.403 18.0007 30.0576 19.5798C21.5876 20.1998 18.3876 23.3698 17.3476 33.1998C16.6076 40.1798 16.3276 43.6598 15.9576 50.6398C15.5676 57.9298 11.3676 63.4598 7.01758 66.0498C5.76758 66.7598 5.76758 68.4598 7.01758 69.1698C11.1876 71.3598 15.4976 76.2498 15.9376 84.8098C16.3076 91.9098 16.5876 95.4598 17.3376 102.57C18.2976 111.69 22.0576 115.77 30.5376 116.39C55.7176 117.93 80.5376 117.93 105.718 116.39H105.688Z" fill="#D4FF4C"/>
<path d="M47.4876 83.1499C48.4176 81.9399 49.4876 81.4099 50.6976 81.4099C52.0376 81.4099 53.3676 81.9499 54.7076 82.8899C58.9776 85.7099 63.7876 87.3199 69.5376 87.3199C73.9476 87.3199 77.4176 85.4399 77.4176 81.6899C77.4176 71.8999 44.9576 77.2599 44.9576 55.2599C44.9576 43.4499 54.5776 36.8799 66.9976 36.8799C75.8176 36.8799 82.2276 39.4299 87.0376 42.5099C88.2376 43.3099 89.0376 44.9199 89.0376 46.5299C89.0376 47.4699 88.7676 48.4099 88.2376 49.2099L86.7676 51.3599C85.6976 52.8399 84.4976 53.5099 83.0276 53.5099C81.9576 53.5099 80.8876 53.1099 79.6876 52.5699C76.0776 50.6899 72.3376 49.7499 67.7976 49.7499C63.2576 49.7499 60.3176 52.2999 60.3176 54.9799C60.3176 65.0399 92.7776 59.5399 92.7776 80.8699C92.7776 92.8099 83.1576 100.19 68.4676 100.19C59.1176 100.19 52.3076 97.3699 46.0276 91.8699C44.9576 90.9299 44.5576 89.7199 44.5576 88.5199C44.5576 87.5799 44.8276 86.5099 45.4976 85.6999L47.4976 83.1499H47.4876Z" fill="black"/>
</svg>
